# xmcd
#
# Track frame offsets: 
#        150
#        11185
#        21131
#        33661
#        44289
#        57478
#        69792
#        80266
#        92029
#        104708
#        114652
#        125709
#        136148
#        146747
#        157575
#        169911
#        178954
#        191566
#        202705
#        213860
#
# Disc length: 3060 seconds
#
# Revision: 1
# Processed by: cddbd v1.5.2PL0 Copyright (c) Steve Scherf et al.
# Submitted via: ExactAudioCopyFreeDBPlugin 1.0
#
DISCID=190bf214
DTITLE=Various Artist - Northern Soul All Nighter [One Day Music]
DYEAR=2016
DGENRE=Soul
TTITLE0=The O'Jays - Miracles
TTITLE1=Maureen Gray - Crazy Over You
TTITLE2=LaBrenda Ben and The Beljeans - The Chaperone
TTITLE3=The Marvelettes - Way Over There
TTITLE4=Etta James - Seven Day Fool
TTITLE5=Jerry Butler - He Will Break Your Heart
TTITLE6=Smokey Robinson and The Miracles - He Don't Care About Me
TTITLE7=Timi Yuro - What's a Matter Baby
TTITLE8=The Temptations - Paradise
TTITLE9=Benny Spellman - Fortune Teller
TTITLE10=Chuck Jackson - The Heartbreak
TTITLE11=The Soul Brothers - The Parade of Broken Hearts
TTITLE12=The Delacardos - I Just Want to Know
TTITLE13=Carla Thomas - Dance with Me
TTITLE14=The "5" Royales - My Sugar Sugar
TTITLE15=Patience Valentine - If You Don't Come
TTITLE16=Wilson Pickett - Let Me Be Your Boy
TTITLE17=Solomon Burke - I Said I Was Sorry
TTITLE18=Tammy Montgomery - It's Mine
TTITLE19=Al Wilson - Show and Tell
EXTD=
EXTT0=
EXTT1=
EXTT2=
EXTT3=
EXTT4=
EXTT5=
EXTT6=
EXTT7=
EXTT8=
EXTT9=
EXTT10=
EXTT11=
EXTT12=
EXTT13=
EXTT14=
EXTT15=
EXTT16=
EXTT17=
EXTT18=
EXTT19=
PLAYORDER=
